<?xml version="1.0" encoding="UTF-8" standalone="no"?>
<!DOCTYPE svg PUBLIC "-//W3C//DTD SVG 1.1//EN"
 "http://www.w3.org/Graphics/SVG/1.1/DTD/svg11.dtd">
<!-- Generated by graphviz version 2.47.0 (20210316.1810)
 -->
<!-- Title: diagrams Pages: 1 -->
<svg width="854pt" height="429pt"
 viewBox="0.00 0.00 854.00 429.00" xmlns="http://www.w3.org/2000/svg" xmlns:xlink="http://www.w3.org/1999/xlink">
<g id="graph0" class="graph" transform="scale(1 1) rotate(0) translate(144 285)">
<title>diagrams</title>
<polygon fill="white" stroke="transparent" points="-144,144 -144,-285 710,-285 710,144 -144,144"/>
<text text-anchor="middle" x="283" y="-8.5" font-family="Sans-Serif" font-size="15.00" fill="#2d3436">AWS Flow</text>
<!-- a0 -->
<g id="node1" class="node">
<title>a0</title>
<image xlink:href="https://github.com/mingrammer/diagrams/raw/master/resources/aws/compute/lambda.png" width="101px" height="101px" preserveAspectRatio="xMinYMin meet" x="0" y="-141"/>
<text text-anchor="middle" x="50.5" y="-29.9" font-family="Sans-Serif" font-size="13.00" fill="#2d3436">Producer</text>
</g>
<!-- a1 -->
<g id="node2" class="node">
<title>a1</title>
<image xlink:href="https://github.com/mingrammer/diagrams/raw/master/resources/aws/integration/simple-queue-service-sqs.png" width="101px" height="101px" preserveAspectRatio="xMinYMin meet" x="155" y="-141"/>
<text text-anchor="middle" x="205.5" y="-29.9" font-family="Sans-Serif" font-size="13.00" fill="#2d3436">Queue</text>
</g>
<!-- a0&#45;&gt;a1 -->
<g id="edge1" class="edge">
<title>a0&#45;&gt;a1</title>
<path fill="none" stroke="#7b8894" d="M101.25,-83.5C101.25,-83.5 144.9,-83.5 144.9,-83.5"/>
<polygon fill="#7b8894" stroke="#7b8894" points="144.9,-87 154.9,-83.5 144.9,-80 144.9,-87"/>
</g>
<!-- a2 -->
<g id="node3" class="node">
<title>a2</title>
<image xlink:href="https://github.com/mingrammer/diagrams/raw/master/resources/aws/compute/lambda.png" width="101px" height="101px" preserveAspectRatio="xMinYMin meet" x="310" y="-141"/>
<text text-anchor="middle" x="360.5" y="-29.9" font-family="Sans-Serif" font-size="13.00" fill="#2d3436">Consumer</text>
</g>
<!-- a1&#45;&gt;a2 -->
<g id="edge2" class="edge">
<title>a1&#45;&gt;a2</title>
<path fill="none" stroke="#7b8894" d="M256.25,-83.5C256.25,-83.5 299.9,-83.5 299.9,-83.5"/>
<polygon fill="#7b8894" stroke="#7b8894" points="299.9,-87 309.9,-83.5 299.9,-80 299.9,-87"/>
</g>
<!-- a3 -->
<g id="node4" class="node">
<title>a3</title>
<image xlink:href="https://github.com/mingrammer/diagrams/raw/master/resources/aws/storage/simple-storage-service-s3.png" width="101px" height="101px" preserveAspectRatio="xMinYMin meet" x="465" y="-141"/>
<text text-anchor="middle" x="515.5" y="-29.9" font-family="Sans-Serif" font-size="13.00" fill="#2d3436">My Bucket</text>
</g>
<!-- a2&#45;&gt;a3 -->
<g id="edge3" class="edge">
<title>a2&#45;&gt;a3</title>
<path fill="none" stroke="#7b8894" d="M411.25,-83.5C411.25,-83.5 454.9,-83.5 454.9,-83.5"/>
<polygon fill="#7b8894" stroke="#7b8894" points="454.9,-87 464.9,-83.5 454.9,-80 454.9,-87"/>
</g>
</g>
</svg>
